<?xml version="1.0" encoding="utf-8"?>
<svg viewBox="0 0 816.22237 700.597" xmlns="http://www.w3.org/2000/svg" xmlns:bx="https://boxy-svg.com">
  <path d="M772.0209,797.89518a34.81426,34.81426,0,0,1-16.74561-4.30859L278.867,533.04069a35.03942,35.03942,0,0,1-13.9137-47.50147L466.00063,117.924a34.99945,34.99945,0,0,1,47.50171-13.91358l476.4082,260.5459a35.03913,35.03913,0,0,1,13.91382,47.50147L802.777,779.673a34.7714,34.7714,0,0,1-20.86914,16.79492A35.147,35.147,0,0,1,772.0209,797.89518Zm-13.8667-9.57227a29.00079,29.00079,0,0,0,39.35864-11.5288L998.5602,409.17887A29.03345,29.03345,0,0,0,987.03164,369.82L510.62344,109.27409a29.00081,29.00081,0,0,0-39.35865,11.5288L270.21743,488.41813A29.03335,29.03335,0,0,0,281.746,527.777Z" transform="matrix(1, 0, 0, 1, -191.88882446289062, -99.70149993896486)" fill="#f2f2f2" style="stroke: rgb(0, 0, 0); visibility: hidden;"/>
  <g style="">
    <path d="M 589.955 569.623 C 584.474 569.62 579.081 568.239 574.273 565.607 L 189.11 354.963 C 173.348 346.362 167.56 326.601 176.19 310.855 L 296.262 91.304 C 304.874 75.554 324.623 69.769 340.371 78.384 L 725.533 289.027 C 741.282 297.639 747.067 317.388 738.453 333.136 L 738.015 332.896 L 738.453 333.136 L 618.382 552.687 C 612.726 563.116 601.819 569.614 589.955 569.623 Z" style="stroke: rgba(9, 9, 9, 0.82); fill: rgb(24, 38, 72);"/>
    <path d="M 563.621 291.321 C 550.832 291.311 538.78 297.304 531.07 307.506 C 513.357 299.884 493.625 312.871 493.62 332.154 L 604.454 332.154 C 604.454 309.602 586.172 291.321 563.621 291.321 Z" style="fill: rgb(148, 148, 148); transform-box: fill-box; transform-origin: 50% 50%;" transform="matrix(0.878057, 0.478556, -0.478556, 0.878057, 0.000008, 0.000001)"/>
    <path style="stroke: rgb(0, 0, 0); fill: rgb(242, 196, 39); transform-box: fill-box; transform-origin: 50% 50%;" transform="matrix(-1.03337, -0.090575, 0.090442, -1.031874, -176.962021, -32.436958)" d="M 462.969 206.017 A 63.479 63.479 0 1 1 462.969 313.093 A 53.541 53.541 0 0 0 462.969 206.017 Z" bx:shape="crescent 497.076 259.555 63.479 245 0.648 1@0809ec00"/>
    <path d="M 567.615 247.362 L 570.818 257.266 L 580.573 257.48 L 572.798 263.815 L 575.624 273.851 L 567.615 267.862 L 559.606 273.851 L 562.432 263.815 L 554.657 257.48 L 564.412 257.266 Z" style="fill: rgb(238, 238, 239);" bx:shape="star 567.615 262.005 13.625 14.643 0.4 5 1@826edff3"/>
    <path d="M 440.339 241.881 L 442.403 247.562 L 448.686 247.685 L 443.678 251.318 L 445.498 257.075 L 440.339 253.64 L 435.18 257.075 L 437 251.318 L 431.992 247.685 L 438.275 247.562 Z" style="fill: rgb(238, 238, 239);" bx:shape="star 440.339 250.28 8.777 8.399 0.4 5 1@cec0bdb2"/>
    <path d="M 628.132 442.153 L 630.824 449.846 L 639.021 450.012 L 632.487 454.933 L 634.862 462.729 L 628.132 458.077 L 621.402 462.729 L 623.777 454.933 L 617.243 450.012 L 625.44 449.846 Z" style="fill: rgb(238, 238, 239);" bx:shape="star 628.132 453.527 11.449 11.374 0.4 5 1@99851394"/>
    <path d="M 435.179 167.611 L 435.911 169.587 L 438.14 169.63 L 436.363 170.894 L 437.009 172.897 L 435.179 171.702 L 433.349 172.897 L 433.995 170.894 L 432.218 169.63 L 434.447 169.587 Z" style="fill: rgb(238, 238, 239);" bx:shape="star 435.179 170.533 3.113 2.922 0.4 5 1@fa270bf4"/>
    <path d="M 339.757 109.503 L 340.489 111.479 L 342.718 111.522 L 340.941 112.786 L 341.587 114.789 L 339.757 113.594 L 337.927 114.789 L 338.573 112.786 L 336.796 111.522 L 339.025 111.479 Z" style="fill: rgb(238, 238, 239);" bx:shape="star 339.757 112.425 3.113 2.922 0.4 5 1@a2d8dfaa"/>
    <path d="M 393.65 128.634 L 396.342 136.327 L 404.539 136.493 L 398.005 141.414 L 400.38 149.21 L 393.65 144.558 L 386.92 149.21 L 389.295 141.414 L 382.761 136.493 L 390.958 136.327 Z" style="fill: rgb(238, 238, 239);" bx:shape="star 393.65 140.008 11.449 11.374 0.4 5 1@305ac94f"/>
    <path d="M 651.26 342.934 L 651.992 344.91 L 654.221 344.953 L 652.444 346.217 L 653.09 348.22 L 651.26 347.025 L 649.43 348.22 L 650.076 346.217 L 648.299 344.953 L 650.528 344.91 Z" style="fill: rgb(238, 238, 239);" bx:shape="star 651.26 345.856 3.113 2.922 0.4 5 1@7f301d37"/>
    <path d="M 658.891 281.46 L 659.623 283.436 L 661.852 283.479 L 660.075 284.743 L 660.721 286.746 L 658.891 285.551 L 657.061 286.746 L 657.707 284.743 L 655.93 283.479 L 658.159 283.436 Z" style="fill: rgb(238, 238, 239);" bx:shape="star 658.891 284.382 3.113 2.922 0.4 5 1@ef22349f"/>
    <path d="M 278.485 165.158 L 279.217 167.134 L 281.446 167.177 L 279.669 168.441 L 280.315 170.444 L 278.485 169.249 L 276.655 170.444 L 277.301 168.441 L 275.524 167.177 L 277.753 167.134 Z" style="fill: rgb(238, 238, 239);" bx:shape="star 278.485 168.08 3.113 2.922 0.4 5 1@025ba91c"/>
    <path d="M 374.948 217.762 L 375.68 219.738 L 377.909 219.781 L 376.132 221.045 L 376.778 223.048 L 374.948 221.853 L 373.118 223.048 L 373.764 221.045 L 371.987 219.781 L 374.216 219.738 Z" style="fill: rgb(238, 238, 239);" bx:shape="star 374.948 220.684 3.113 2.922 0.4 5 1@b1774e9e"/>
    <path d="M 521.566 372.818 L 522.298 374.794 L 524.527 374.837 L 522.75 376.101 L 523.396 378.104 L 521.566 376.909 L 519.736 378.104 L 520.382 376.101 L 518.605 374.837 L 520.834 374.794 Z" style="fill: rgb(238, 238, 239);" bx:shape="star 521.566 375.74 3.113 2.922 0.4 5 1@18ebdd5e"/>
    <path d="M 537.236 197.706 L 537.968 199.682 L 540.197 199.725 L 538.42 200.989 L 539.066 202.992 L 537.236 201.797 L 535.406 202.992 L 536.052 200.989 L 534.275 199.725 L 536.504 199.682 Z" style="fill: rgb(238, 238, 239);" bx:shape="star 537.236 200.628 3.113 2.922 0.4 5 1@691c79fa"/>
    <path d="M 662.877 472.233 C 660.465 472.801 657.995 473.087 655.517 473.083 L 216.516 473.083 C 211.109 473.092 205.789 471.726 201.056 469.113 L 202.226 467.433 L 251.206 396.903 L 323.786 292.413 L 324.846 290.883 L 336.266 274.443 C 339.582 269.663 346.651 269.663 349.967 274.443 L 387.907 329.053 L 387.907 329.063 L 410.227 361.203 L 463.507 437.903 L 544.317 322.553 C 547.64 317.803 554.674 317.803 557.997 322.553 L 609.837 396.543 L 612.817 400.793 L 662.877 472.233 Z" style="fill: rgb(10, 62, 43); transform-box: fill-box; transform-origin: 50% 50%;" transform="matrix(0.878057, 0.478556, -0.478556, 0.878057, 0.000006, -0.000008)"/>
    <path d="M 452.493 307.21 C 436.714 307.198 421.845 314.591 412.332 327.179 C 390.479 317.775 366.133 333.798 366.128 357.589 L 502.872 357.589 C 502.872 329.765 480.316 307.21 452.493 307.21 Z" style="fill: rgb(148, 148, 148); transform-box: fill-box; transform-origin: 50% 50%;" transform="matrix(0.878057, 0.478556, -0.478556, 0.878057, 0.000014, -0.000003)"/>
  </g>
  <path d="M769.88882,797.7985h-543a32.53692,32.53692,0,0,1-32.5-32.5v-419a32.53692,32.53692,0,0,1,32.5-32.5h543a32.53685,32.53685,0,0,1,32.5,32.5v419A32.53685,32.53685,0,0,1,769.88882,797.7985Z" style="fill: rgb(255, 255, 255); visibility: hidden;" transform="matrix(1, 0, 0, 1, -191.88882446289062, -99.70149993896486)"/>
  <path d="M 438.934 672.658 C 433.453 672.655 428.06 671.274 423.252 668.642 L 38.09 457.998 C 22.327 449.397 16.539 429.636 25.17 413.89 L 145.241 194.338 C 153.853 178.589 173.602 172.804 189.35 181.418 L 574.513 392.062 C 590.262 400.674 596.046 420.423 587.433 436.17 L 586.994 435.931 L 587.433 436.17 L 467.361 655.722 C 461.706 666.15 450.798 672.649 438.934 672.658 Z" style="stroke: rgba(9, 9, 9, 0.463); fill: rgb(166, 221, 242);" transform="matrix(0.877524, -0.479533, 0.479533, 0.877524, -166.307869, 198.936418)"/>
  <path d="M769.88882,800.2985h-543a35.03947,35.03947,0,0,1-35-35v-419a35.03947,35.03947,0,0,1,35-35h543a35.03947,35.03947,0,0,1,35,35v419A35.03947,35.03947,0,0,1,769.88882,800.2985Zm-543-483a29.03275,29.03275,0,0,0-29,29v419a29.03275,29.03275,0,0,0,29,29h543a29.03276,29.03276,0,0,0,29-29v-419a29.03276,29.03276,0,0,0-29-29Z" transform="matrix(1, 0, 0, 1, -191.88882446289062, -99.70149993896486)" style="fill: rgb(255, 255, 255); stroke: rgb(0, 0, 0); visibility: hidden;"/>
  <g style="">
    <path d="M 391.003 351.885 C 378.214 351.875 366.162 357.868 358.452 368.07 C 340.739 360.448 321.007 373.435 321.002 392.718 L 431.836 392.718 C 431.836 370.166 413.554 351.885 391.003 351.885 Z" style="fill: rgb(253, 253, 253);"/>
    <circle cx="148.19669" cy="445.96036" r="65.75727" style="fill: rgb(247, 122, 7);"/>
    <path d="M 533.36 581.477 C 530.948 582.045 528.478 582.331 526 582.327 L 87 582.327 C 81.593 582.336 76.273 580.97 71.54 578.357 L 72.71 576.677 L 121.69 506.147 L 194.27 401.657 L 195.33 400.127 L 206.75 383.687 C 210.066 378.907 217.134 378.907 220.45 383.687 L 258.39 438.297 L 258.39 438.307 L 280.71 470.447 L 333.99 547.147 L 414.8 431.797 C 418.123 427.047 425.157 427.047 428.48 431.797 L 480.32 505.787 L 483.3 510.037 L 533.36 581.477 Z" style="fill: rgb(69, 184, 123);"/>
    <path d="M 303.73 420.067 C 287.951 420.055 273.082 427.448 263.569 440.036 C 241.716 430.632 217.371 446.655 217.366 470.446 L 354.109 470.446 C 354.109 442.622 331.553 420.067 303.73 420.067 Z" style="fill: rgb(253, 253, 253);"/>
  </g>
</svg>